<?xml version="1.0" encoding="utf-8"?>
<!-- Generator: Adobe Illustrator 16.0.0, SVG Export Plug-In . SVG Version: 6.00 Build 0)  -->
<!-- Benson Pan @2017 -->
<!DOCTYPE svg PUBLIC "-//W3C//DTD SVG 1.1//EN" "http://www.w3.org/Graphics/SVG/1.1/DTD/svg11.dtd">
<svg version="1.1" id="Layer_1" xmlns="http://www.w3.org/2000/svg" xmlns:xlink="http://www.w3.org/1999/xlink" x="0px" y="0px"
	 width="612px" height="792px" viewBox="0 0 612 792" enable-background="new 0 0 612 792" xml:space="preserve">
<path fill-rule="evenodd" clip-rule="evenodd" fill="#BACBCA" d="M474.086,677.422l-8.84,8.531c0,0,15.08-2.178,13.723-6.658
	C478.686,678.354,474.086,677.422,474.086,677.422z"/>
<path fill-rule="evenodd" clip-rule="evenodd" fill="#C82927" d="M561.592,425.479c-4.133,18.016-8.268,36.033-12.402,54.049
	c-5.943,6.66-11.889,13.313-17.816,19.979c-0.361,1.025-0.732,2.043-1.104,3.057c0.994-0.396,1.984-0.793,2.979-1.186
	c20.313,5.475,6.141,15.824,1.879,22.119c-6.594,9.75-15.852,17.695-22.086,24.367c23.021,21.402-6.025,33.168,0.199,47.277
	c2.088,6.146,4.172,12.285,6.26,18.42c-9.531,20.822-19.064,41.654-28.592,62.479l0.182-0.275c-1.398,1.102-2.795,2.205-4.191,3.313
	c-2.643,0.072-5.283,0.146-7.93,0.219c0,0-5.576,0.551-5.359-0.217c13.594-48.215-4.779-94.525-4.779-94.525
	c20.277-4.609,30.078-17.338,29.605-38.066c6.002-18.596,8.465-39.496,18.74-55.324c22.461-34.605,20.27-66.371-1.635-99.026
	c3.146-15.645,6.295-31.289,9.445-46.931c5,0.02,9.994,0.045,14.998,0.066c0.266,8.679-0.609,17.605,1.195,25.957
	c1.252,5.801,6.182,10.808,9.469,16.172C554.295,400.092,557.945,412.783,561.592,425.479z"/>
<path fill-rule="evenodd" clip-rule="evenodd" fill="#E33B28" d="M550.648,387.401c-3.287-5.364-8.217-10.371-9.469-16.172
	c-1.805-8.352-0.93-17.278-1.193-25.951c0.307-6.838,0.607-13.677,1.059-23.887c3.998,6.222,6.006,9.343,8.01,12.466
	c1.109,9.64,2.213,19.279,3.32,28.918c-0.686,2.21-1.367,4.416-2.053,6.626C550.428,375.401,550.537,381.399,550.648,387.401z"/>
<path fill-rule="evenodd" clip-rule="evenodd" fill="#C82927" d="M550.322,369.401c0.686-2.21,1.367-4.416,2.053-6.626l-3.32-28.918
	l4.295-21.229c5.629,19.689,7.922,113.094,8.094,113.497l-10.795-38.724C550.002,387.783,550.322,369.401,550.322,369.401z"/>
<path fill-rule="evenodd" clip-rule="evenodd" fill="#EE8776" d="M123.684,198.736c0,0,13.833-4.105,20.75-2.83
	c-2.074,2.763-4.146,5.52-6.222,8.282c-2.147,1.447-4.292,2.892-6.438,4.339l0.244-0.254c-1.468,1.467-2.939,2.934-4.409,4.396
	l0.177-0.206c-17.552,16.382-34.158,33.291-33.227,59.923c-1.479,24.424-2.959,48.844-4.437,73.264
	c-1.138,4.351-2.276,8.702-3.412,13.051c5.23,11.015,10.462,22.026,15.689,33.038c1.303,5.238,2.603,10.479,3.903,15.711
	c-8.73-4.879-23.418-8.143-25.254-14.902c-15.702-57.764-14.197-114.159,20.793-166.035c4.08-6.05,6.469-13.24,9.642-19.901
	C112.817,204.506,123.684,198.736,123.684,198.736z"/>
<path fill-rule="evenodd" clip-rule="evenodd" fill="#C82927" d="M478.322,196.919c0.01,0.782,0.094,1.557,0.256,2.321
	c7.049,14.163,14.102,28.323,21.15,42.485c-2.904,6.464-7.725,12.755-8.328,19.428c-1.439,15.819-0.881,31.822-1.127,47.751
	c-4.004,8.304-8.004,16.611-12.004,24.918c-5.826-5.926-11.652-11.849-17.473-17.765c1.98-11.866,3.961-23.742,6.949-41.718
	c-7.17,8.183-9.955,11.363-11.879,13.555c-10.898-17.114-21.42-33.65-31.949-50.187l0.098,0.13
	c-2.814-2.835-5.621-5.667-8.432-8.501l0.168,0.142c-8.295-4.192-16.592-8.382-24.887-12.568
	c-14.799-0.122-25.314,5.801-29.393,20.823c-5.525,4.294-11.049,8.588-16.576,12.877c-2.635,1.47-5.268,2.941-7.9,4.411
	c-2.529-0.944-7.158-2.962-7.301-2.68c-9.316,18.143-26.99,22.703-44.356,28.028c-30.467,9.346-60.85,18.977-91.264,28.486
	c0.072-9.041-0.21-18.104,0.358-27.116c0.284-4.511,4.573-10.65,2.85-13.102c-11.5-16.357,1.559-21.329,12.1-25.072
	c30.351-10.787,58.498-24.24,79.419-50.063c4.57-5.642,11.756-9.923,18.588-12.832c18.297-7.786,37.057-14.491,51.52-20.043
	c1.756-8.003,2.938-13.381,4.113-18.753c6.775-4.16,13.555-8.314,20.33-12.472c0.686,0.299,1.398,0.441,2.146,0.441
	c1.563,2.102,3.117,4.199,4.674,6.301c6.27-12.075,16.633-7.425,26.115-6.398c1.398-1.21,2.789-2.421,4.188-3.632
	c1.332-0.06,2.6-0.368,3.809-0.932c1.313,0.321,2.613,0.271,3.895-0.151c4.031,0.67,8.051,1.338,12.922,2.14
	c-2.109,5.666-3.648,9.801-5.18,13.948c-2.535,1.646-5.082,3.28-7.627,4.914c-0.266,0.488-0.531,0.974-0.795,1.462
	c0.199-0.55,0.398-1.104,0.596-1.653c2.93-1.201,5.857-2.409,8.783-3.609c8.246-4.339,16.486-8.678,24.727-13.017
	c-4.525,21.836-26.49,34.621-52.553,25.887c5.477,18.977,10.109,35.04,14.738,51.107c1.855-0.288,3.709-0.577,5.563-0.864
	c0-12.07,0-24.138,0-37.553c6.34,1.43,10.875,2.45,15.402,3.475c3.48,5.044,6.965,10.09,10.441,15.139
	c-2.609,24.004-5.221,48.007-7.834,72.011c1.977,0.236,3.949,0.473,5.924,0.71c14.777-17.927,18.348-39.103,16.85-61.746
	c1.945-0.488,3.891-0.977,5.836-1.463C476.701,196.381,477.482,196.715,478.322,196.919z M336.348,229.138l-0.238,0.169
	c9.84-7.402,14.506-15.243,2.082-24.542c0.814-8.59-16.184-22.688-31.974-4.749c-6.588,7.484-10.915,16.947-16.272,25.515
	c1.677,5.442,3.346,10.89,5.017,16.332l-0.127-0.191c12.683,14.155,27.574,10.877,37.322-8.212l-0.012,0.032
	C333.547,232.042,334.949,230.587,336.348,229.138z"/>
<path fill-rule="evenodd" clip-rule="evenodd" fill="#841B19" d="M436.41,117.053c5.43-0.239,10.857-0.48,16.291-0.725
	c8.711-2.466,17.412-4.937,26.121-7.408c-5.777,6.805-11.557,13.604-17.338,20.407l0.121-0.109
	c-8.24,4.339-16.48,8.678-24.727,13.017l-0.967-1.126c1.541-4.135,3.08-8.27,5.189-13.936c-4.871-0.802-8.891-1.47-12.922-2.14
	C430.926,122.374,433.672,119.713,436.41,117.053z"/>
<path fill-rule="evenodd" clip-rule="evenodd" fill="#EE8776" d="M416.289,129.749c-9.482-1.026-19.846-5.677-26.115,6.398
	c-1.557-2.102-3.111-4.199-4.674-6.301c10.475-7.346,34.977-9.396,34.977-9.396s14.951-4.27,15.934-3.397l-8.23,7.98
	c-1.205,0.563-6.371,1.023-7.703,1.083C419.078,127.323,417.688,128.539,416.289,129.749z"/>
<path fill-rule="evenodd" clip-rule="evenodd" fill="#E33B28" d="M592.197,579.656c1.184,0.229,2.336,0.561,3.455,0.998
	c2.748,3.877,5.504,7.736,8.26,11.604c-0.344,1.307-0.768,2.592-1.275,3.846c-8.801,15.975-13.602,35.73-36.391,38.479
	c-1.604-1.479-3.213-2.955-4.822-4.439c1.572-3.924,3.146-7.852,4.713-11.775c8.25-12.859,16.496-25.719,24.746-38.578
	L592.197,579.656z"/>
<path fill-rule="evenodd" clip-rule="evenodd" fill="#C82927" d="M566.246,634.582c22.789-2.748,27.59-22.504,36.391-38.479
	c0.373,5.375,0.75,10.748,1.121,16.123c0,17.338-9.057,30.541-9.057,30.541l-15.99,5.301c-0.434,0-6.092-0.281-13.557-1.963
	C565.52,642.262,565.881,638.422,566.246,634.582z"/>
<path fill-rule="evenodd" clip-rule="evenodd" fill="#841B19" d="M566.246,634.582c-0.365,3.84-0.727,7.68-1.084,11.523
	c-17.41-8.414-34.863-17.232-49.236,4.908c1.189-12.482,2.383-24.967,3.574-37.447c-2.088-6.141-4.172-12.279-6.26-18.426
	c-6.225-14.109,22.822-25.875-0.199-47.277c6.234-6.672,15.492-14.617,22.086-24.367c4.262-6.295,18.434-16.645-1.879-22.119
	c-0.609-0.646-1.238-1.271-1.883-1.879c5.936-6.658,11.881-13.311,17.824-19.971c2.986,5.531,5.973,11.064,8.961,16.598
	c1.135,0.156,2.262,0.322,3.391,0.496c5.846,11.127,11.701,22.254,17.547,33.375c-3.313,9.365-6.619,18.732-9.928,28.098
	c-3.922,1.07-7.852,2.143-9.113,2.488c-2.551-12.992-5.023-25.615-7.5-38.238c-2.273,0.197-4.549,0.391-6.824,0.594
	c-14.672,33.508-26.26,67.484-14.85,105.576c11.201,0.598,20.875,1.115,30.551,1.633
	C563.033,631.627,564.643,633.104,566.246,634.582z"/>
<path fill-rule="evenodd" clip-rule="evenodd" fill="#E33B28" d="M569.16,558.094c3.309-9.365,6.615-18.732,9.928-28.098
	c2.385,0.223,4.758,0.447,7.139,0.672c1.719,8.279,3.438,16.561,5.154,24.838c-0.023,4.016-0.043,8.031-0.063,12.053
	c-0.361,1.275-0.379,2.545-0.053,3.824C577.752,577.168,573.604,567.383,569.16,558.094z"/>
<path fill-rule="evenodd" clip-rule="evenodd" fill="#E33B28" d="M478.27,333.823c4-8.307,8-16.614,12.006-24.921
	c0.389,2.594,0.77,5.187,1.152,7.781c1.57,0.443,3.139,0.887,4.705,1.335c6.492-18.297,12.99-36.589,19.484-54.881
	c1.652,1.096,3.307,2.191,4.961,3.287c0.664,0.247,1.332,0.466,2.018,0.66c1.936,2.768,3.865,5.542,5.795,8.312l-0.154-0.264
	c-1.082,23.356-2.166,46.717-3.25,70.073c-3.15,15.642-6.299,31.286-9.445,46.931C503.119,372.699,490.699,353.258,478.27,333.823z"
	/>
<path fill-rule="evenodd" clip-rule="evenodd" fill="#841B19" d="M528.391,275.396c-1.93-2.77-3.859-5.544-5.795-8.312"/>
<path fill-rule="evenodd" clip-rule="evenodd" fill="#3C2D1B" d="M520.578,266.424c-1.654-1.096-3.309-2.191-4.961-3.287
	c0.082-1.532,0.158-3.064,0.238-4.591c0.648-0.519,1.307-1.021,1.98-1.512C518.75,260.163,519.666,263.293,520.578,266.424z"/>
<path fill-rule="evenodd" clip-rule="evenodd" fill="#3C2D1B" d="M512.58,249.398c1.748,2.548,3.496,5.099,5.248,7.642
	c-0.666,0.485-1.324,0.988-1.973,1.507c-1.645-2.586-3.295-5.168-4.941-7.751C511.471,250.33,512.027,249.866,512.58,249.398z"/>
<path fill-rule="evenodd" clip-rule="evenodd" fill="#841B19" d="M524.986,345.206c1.084-23.356,2.168-46.717,3.25-70.073
	c5.402,9.796,10.531,19.767,16.365,29.307c2.012,3.288,5.781,5.497,8.748,8.189c-1.43,7.076-2.859,14.15-4.295,21.227
	c-2.004-3.121-4.012-6.242-8.01-12.464c-0.451,10.21-0.752,17.049-1.059,23.887C534.98,345.25,529.986,345.225,524.986,345.206z"/>
<path fill-rule="evenodd" clip-rule="evenodd" fill="#CD5828" d="M478.27,333.823c12.43,19.436,24.85,38.876,37.271,58.313
	c21.904,32.655,24.096,64.42,1.635,99.026c-10.275,15.828-12.738,36.729-18.73,55.324c-8.344,4.023-16.689,8.049-25.035,12.068
	c5.078-27.609,14.209-55.324,1.918-77.949c-2.898,25.041-6.242,53.859-9.576,82.674l0.16-0.256c-1.57,1.512-3.141,3.018-4.711,4.531
	c-16.529-1.264-33.049-2.521-49.574-3.795c4.139-30.805,8.279-61.609,12.418-92.412l0.004-0.012
	c1.363-2.936,2.729-5.871,4.094-8.805c-1.25-16.301-2.217-32.633-3.891-48.887c-0.609-5.914-2.898-11.652-4.418-17.47
	c5.621,2.794,11.248,5.583,16.869,8.376l-0.158-0.152c1.447,1.455,2.896,2.914,4.34,4.363l-0.148-0.191
	c1.438,2.852,2.877,5.703,4.314,8.561l-0.18-0.211c1.447,1.457,2.893,2.916,4.338,4.373l-0.139-0.193
	c4.189,7.025,8.377,14.055,12.566,21.082c0.852,2.633,1.705,5.262,2.559,7.895c0.301-32.176-3.418-37.635-54.178-88.14
	c3.297-3.026,6.586-6.046,9.869-9.064c13.635-12.271,27.271-24.546,40.904-36.821C466.617,321.974,472.443,327.897,478.27,333.823z"
	/>
<path fill-rule="evenodd" clip-rule="evenodd" fill="#EE802B" d="M473.41,558.555c8.346-4.02,16.691-8.045,25.035-12.068
	c0.463,20.729-9.338,33.457-29.615,38.066c-17.871,4.063-35.729,8.184-53.598,12.273c-2.615-1.508-5.227-3.016-7.842-4.523
	c-1.572-2.693-3.145-5.389-4.713-8.084c2.98-6.818,5.963-13.633,8.949-20.449c16.525,1.264,33.045,2.521,49.574,3.785
	c1.57-1.514,3.143-3.025,4.711-4.531l-0.16,0.256C468.301,561.703,470.855,560.131,473.41,558.555z"/>
<path fill-rule="evenodd" clip-rule="evenodd" fill="#E33B28" d="M515.926,651.014c-8.344,8.342-16.68,16.682-25.023,25.025
	c9.533-20.824,19.066-41.656,28.598-62.479C518.309,626.047,517.115,638.531,515.926,651.014z"/>
<path fill-rule="evenodd" clip-rule="evenodd" fill="#841B19" d="M533.248,501.377c-0.994,0.393-1.984,0.789-2.979,1.186
	c0.371-1.014,0.742-2.031,1.104-3.057C532.01,500.105,532.639,500.73,533.248,501.377z"/>
<path fill-rule="evenodd" clip-rule="evenodd" fill="#E33B28" d="M491.09,675.764c-1.398,1.102-2.795,2.211-4.191,3.314
	C488.295,677.969,489.691,676.865,491.09,675.764z"/>
<path fill-rule="evenodd" clip-rule="evenodd" fill="#EE8776" d="M290.65,163.237c24.137-7.123,48.278-14.244,72.397-21.365
	c-1.199,5.377-2.381,10.755-4.137,18.758c-14.463,5.552-33.223,12.257-51.52,20.043c-6.833,2.909-14.018,7.19-18.588,12.832
	c-20.921,25.822-49.068,39.275-79.419,50.063c-10.541,3.743-23.6,8.715-12.1,25.072c1.724,2.451-2.565,8.591-2.85,13.102
	c-0.568,9.012-0.286,18.075-0.358,27.116c0,2.566-0.003,5.132-0.003,7.699l0.339,0.072c-2.797-0.201-5.592-0.403-8.389-0.605
	c-13.72-44.306-4.083-70.718,33.015-94.716c10.721-6.939,19.643-16.651,29.392-25.093c8.685-6.229,17.375-12.458,26.063-18.688
	c5.447-4.899,10.892-9.797,16.329-14.693L290.65,163.237z"/>
<path fill-rule="evenodd" clip-rule="evenodd" fill="#322618" d="M290.822,162.833c-5.438,4.896-10.882,9.794-16.329,14.693
	C279.932,172.629,285.379,167.73,290.822,162.833z"/>
<path fill-rule="evenodd" clip-rule="evenodd" fill="#AA7D48" d="M241.711,196.175c-1.788,1.38-3.579,2.757-5.368,4.137
	C238.132,198.937,239.923,197.555,241.711,196.175z"/>
<path fill-rule="evenodd" clip-rule="evenodd" fill="#C82927" d="M92.066,218.475c1.564-1.039,3.128-2.077,4.697-3.104
	c4.912-2.914,9.816-5.839,14.721-8.761c-3.173,6.661-5.562,13.852-9.642,19.901c-34.99,51.876-36.495,108.271-20.793,166.035
	c1.836,6.759,16.523,10.023,25.254,14.902l0.829,1.439c3.036,3.951,6.078,7.908,9.114,11.863c-6.18,7.74-13.187,14.98-18.322,23.359
	c-6.115,9.979-10.626,20.938-15.831,31.469c-0.356,0.453-0.713,0.904-1.066,1.357c0.294-0.514,0.59-1.031,0.884-1.545
	c16.775-15.762,33.546-31.525,50.321-47.293c5.317,0.76,10.636,1.52,15.951,2.279c-6.904,8.678-15.01,16.691-20.293,26.266
	c-3.484,6.307-2.906,14.857-4.145,22.402c7.46,5.275,14.743,10.861,22.691,15.262c0.665,0.371,5.759-7.262,10.387-13.223
	c-11.029-1.123-18.481-1.879-25.932-2.643c14.15-12.74,28.3-25.477,42.447-38.223c1.51,0.332,3.02,0.66,4.526,0.992
	c-4.835,12.313-9.67,24.625-15.328,39.059c2.834,2.557,7.559,6.813,13.385,12.061c5.298-7.076,9.323-12.459,13.351-17.842
	c0.837,0.723,1.666,1.453,2.481,2.197c-7.249,20.518-14.497,41.039-21.747,61.557c-3.348-4.244-5.976-11.211-10.152-12.314
	c-40.341-10.674-75.067-30.801-105.38-59.189c-3.813-3.574-9.221-5.447-13.889-8.113l-0.14-0.076
	c-1.439-2.803-2.879-5.609-4.318-8.416c-19.887-40.129-18.481-82.552-13.518-125.356c1.629-9.291,3.258-18.574,4.887-27.864
	c3.051-4.382,6.1-8.766,9.148-13.154c6.755-12.633,13.515-25.262,20.271-37.896c0,0-0.162,0.179-0.16,0.179
	C68.528,236.857,80.294,227.666,92.066,218.475z M44.459,348.06c-9.494,40.494-4.762,88.784,25.546,86.334
	C61.94,407.135,53.887,379.921,44.459,348.06z"/>
<path fill-rule="evenodd" clip-rule="evenodd" fill="#483520" d="M138.212,204.188c-2.147,1.447-4.292,2.892-6.438,4.339
	C133.92,207.08,136.065,205.635,138.212,204.188z"/>
<path fill-rule="evenodd" clip-rule="evenodd" fill="#483520" d="M132.018,208.273c-1.468,1.467-2.939,2.934-4.409,4.396
	C129.079,211.207,130.55,209.74,132.018,208.273z"/>
<path fill-rule="evenodd" clip-rule="evenodd" fill="#EE802B" d="M22.611,324.779c-4.964,42.804-6.369,85.227,13.518,125.36
	c1.439,2.805,2.879,5.609,4.318,8.412c0,0,0.14,0.076,0.138,0.076c7.327,11.881,12.506,26.104,22.395,35.199
	c29.59,27.215,65.616,42.336,105.332,48.551l1.462,0.461l7.233,8.982l0.901,5.813l-3.156,14.178l-11.881-0.875
	c-24.125-10.01-48.084-19.951-72.045-29.896c-11.953-11.459-23.904-22.922-35.857-34.393c-11.751-21.543-23.505-43.084-35.26-64.625
	C9.019,405.918,6.067,369.48,15.694,332.684C16.486,329.65,20.237,327.394,22.611,324.779z"/>
<path fill-rule="evenodd" clip-rule="evenodd" fill="#CD5828" d="M361.473,237.734c4.078-15.022,14.594-20.945,29.393-20.823
	c8.295,4.187,16.592,8.376,24.887,12.568l-0.168-0.142c2.811,2.834,5.617,5.666,8.432,8.501l-0.098-0.13
	c4.357,12.115,9.672,23.996,12.793,36.42c3.191,12.663,4.219,25.867,6.199,38.834c-48.242,1.382-71.021,36.756-94.693,70.932
	c-10.922,9.709-21.842,19.42-32.764,29.129l0.219-0.236c-3.379-0.053-37.5-0.586-37.5-0.586l-12.185-12.072
	c16.78-34.016,64.027-54.928,78.197-90.001C353.375,287.377,355.936,261.957,361.473,237.734z"/>
<path fill-rule="evenodd" clip-rule="evenodd" fill="#841B19" d="M442.91,312.962c-1.98-12.967-3.008-26.171-6.199-38.834
	c-3.121-12.424-8.436-24.305-12.793-36.42c10.529,16.536,21.051,33.072,31.949,50.187c1.924-2.191,4.709-5.372,11.879-13.555
	c-2.988,17.976-4.969,29.852-6.949,41.718c-13.639,12.268-27.275,24.542-40.91,36.829c-12.484,3.679-24.965,7.335-37.449,10.996
	c0.164,1.801,0.332,3.606,0.492,5.405c22.998,4.416,44.541,10.939,53.773,35.262c-5.621-2.793-11.248-5.582-16.869-8.376
	l0.117,0.114c-1.455-1.295-2.91-2.591-4.363-3.891c-10.168-3.813-20.334-7.632-30.502-11.453
	c-1.516,9.453-4.123,18.877-4.297,28.356c-0.313,16.467,0.887,32.965,1.457,49.449c-4.016-9.77-8.031-19.543-12.043-29.32
	c-3.674-12.764-7.346-25.531-11.533-40.081c-17.771,13.963-17.941,28.45-6.107,44.645c0.16,4.084,0.318,8.172,0.477,12.256
	c1.646,10.875,3.297,21.752,4.947,32.625c-0.572,0.625-1.166,1.223-1.789,1.789c-18.801-12.066-24.549-30.863-23.988-51.381
	c0.367-13.395-4.822-17.367-16.756-16.26c10.922-9.709,21.842-19.42,32.766-29.129c2.674-0.224,6.15,0.568,7.883-0.821
	C385.172,359.864,414.016,336.383,442.91,312.962z"/>
<path fill-rule="evenodd" clip-rule="evenodd" fill="#EE802B" d="M361.477,237.721c-5.549,24.24-8.092,49.646-17.311,72.422
	c-14.145,35.045-74.134,93.992-78.179,89.986c-1.378-6.05-2.713-12.057-4.09-18.108c2.299-6.132,15.28-2.929,17.574-9.019
	c7.094-1.961,39.039-51.388,40.373-56.354c4.172-4.003,8.305-8.008,12.477-11.974c17.602-12.389,21.441-28.78,12.596-54.064
	C350.424,246.317,355.928,242.017,361.477,237.721z"/>
<path fill-rule="evenodd" clip-rule="evenodd" fill="#EBECED" d="M289.945,225.531c5.357-8.567,9.685-18.03,16.272-25.515
	c15.791-17.938,32.962-3.841,31.974,4.749c-0.697,8.183-1.391,16.357-2.082,24.542c0,0,0.238-0.169,0.236-0.169
	c-1.402,1.449-2.805,2.898-4.201,4.354c0,0,0.012-0.032,0.016-0.032c-12.441,2.737-24.885,5.475-37.326,8.212l0.127,0.191
	C293.291,236.42,291.617,230.973,289.945,225.531z"/>
<path fill-rule="evenodd" clip-rule="evenodd" fill="#841B19" d="M444.756,171.27c-4.527-1.024-9.063-2.045-15.402-3.475
	c0,13.415,0,25.482,0,37.553c-1.854,0.287-3.707,0.576-5.563,0.864c-4.629-16.067-9.262-32.131-14.738-51.107
	c26.063,8.734,48.027-4.051,52.553-25.887l-0.121,0.109c8.396-2.819,16.797-5.634,25.199-8.448c1.711,2.391,3.475,6.827,5.121,6.782
	c5.104-0.138,10.154-1.98,15.23-3.161c0.75,0.75,1.068,1.649,0.961,2.705c-12.041,6.613-24.387,12.74-36.041,19.979
	c-9.402,5.838-17.975,13.021-26.92,19.607C444.945,168.284,444.852,169.778,444.756,171.27z"/>
<path fill-rule="evenodd" clip-rule="evenodd" fill="#E33B28" d="M311.814,282.657c-39.245,11.306-78.49,22.602-117.737,33.902
	c-0.005-2.57-0.002-5.136-0.002-7.702c30.414-9.51,60.797-19.141,91.264-28.486c17.366-5.325,35.04-9.886,44.356-28.028
	c0.143-0.282,4.771,1.735,7.301,2.68c-0.17,0.994-0.201,1.992-0.098,2.994C328.539,266.23,320.178,274.448,311.814,282.657z"/>
<path fill-rule="evenodd" clip-rule="evenodd" fill="#841B19" d="M510.914,250.795c1.646,2.583,3.297,5.165,4.941,7.751
	c-0.08,1.526-0.156,3.059-0.238,4.591c-6.494,18.292-12.992,36.584-19.484,54.881c-1.566-0.448-3.135-0.892-4.705-1.335
	c-0.383-2.595-0.764-5.188-1.152-7.781c0.244-15.926-0.314-31.929,1.125-47.748c0.604-6.673,5.424-12.964,8.328-19.428
	C503.453,244.748,507.188,247.766,510.914,250.795z"/>
<path fill-rule="evenodd" clip-rule="evenodd" fill="#841B19" d="M470.137,197.383c1.498,22.644-2.072,43.819-16.85,61.746
	c-1.975-0.237-3.947-0.474-5.924-0.71c2.613-24.004,5.225-48.007,7.826-72.006c3.578,0.374,7.16,0.74,10.744,1.108l-0.072,0.003
	c1.396,1.409,2.795,2.814,4.197,4.224l-0.012-0.045C470.078,193.599,470.105,195.493,470.137,197.383z"/>
<path fill-rule="evenodd" clip-rule="evenodd" fill="#841B19" d="M336.898,258.016c-0.104-1.002-0.072-2,0.098-2.994
	c2.633-1.47,5.266-2.941,7.9-4.411c8.844,25.284,5.033,41.665-12.568,54.074C333.852,289.13,335.375,273.576,336.898,258.016z"/>
<path fill-rule="evenodd" clip-rule="evenodd" fill="#E33B28" d="M294.834,241.671c12.441-2.737,24.884-5.475,37.326-8.212
	C322.408,252.548,307.518,255.827,294.834,241.671z"/>
<path fill-rule="evenodd" clip-rule="evenodd" fill="#E33B28" d="M336.109,229.307c0.691-8.185,1.385-16.359,2.082-24.542
	C350.615,214.064,345.949,221.905,336.109,229.307z"/>
<path fill-rule="evenodd" clip-rule="evenodd" fill="#841B19" d="M415.752,229.479c-8.295-4.192-16.592-8.382-24.887-12.568
	C399.16,221.097,407.457,225.287,415.752,229.479z"/>
<path fill-rule="evenodd" clip-rule="evenodd" fill="#E33B28" d="M289.945,225.531c1.672,5.442,3.346,10.89,5.017,16.332
	C293.291,236.42,291.622,230.973,289.945,225.531z"/>
<path fill-rule="evenodd" clip-rule="evenodd" fill="#841B19" d="M424.016,237.838c-2.814-2.835-5.621-5.667-8.432-8.501
	C418.395,232.171,421.201,235.003,424.016,237.838z"/>
<path fill-rule="evenodd" clip-rule="evenodd" fill="#841B19" d="M436.879,142.235c-2.926,1.2-5.854,2.408-8.783,3.609l0.199,0.191
	c2.545-1.634,5.092-3.268,7.627-4.914C435.912,141.109,436.879,142.235,436.879,142.235z"/>
<path fill-rule="evenodd" clip-rule="evenodd" fill="#841B19" d="M416.289,129.749c1.398-1.21,2.789-2.426,4.188-3.632
	C419.078,127.328,417.688,128.539,416.289,129.749z"/>
<path fill-rule="evenodd" clip-rule="evenodd" fill="#841B19" d="M428.096,145.844c-0.197,0.55-0.396,1.104-0.596,1.653
	c0.264-0.488,0.529-0.974,0.795-1.462L428.096,145.844z"/>
<path fill-rule="evenodd" clip-rule="evenodd" fill="#3C2D1B" d="M470.137,197.383c-0.031-1.891-0.059-3.784-0.09-5.68
	c1.969,1.41,3.941,2.817,5.922,4.223C474.027,196.407,472.082,196.895,470.137,197.383z"/>
<path fill-rule="evenodd" clip-rule="evenodd" fill="#E33B28" d="M332.145,233.492c1.396-1.455,2.799-2.904,4.201-4.354
	C334.949,230.587,333.547,232.042,332.145,233.492z"/>
<path fill-rule="evenodd" clip-rule="evenodd" fill="#C82927" d="M478.822,108.92c3.9-0.002,7.799-0.007,11.697-0.015
	c0.049,2.665,0.102,5.333,0.152,7.998l0.211-0.267c-1.463,1.467-2.93,2.939-4.391,4.403l0.191-0.161
	c-8.402,2.814-16.803,5.629-25.199,8.448C467.266,122.525,473.045,115.725,478.822,108.92z"/>
<path fill-rule="evenodd" clip-rule="evenodd" fill="#C82927" d="M569.16,558.094c4.443,9.289,8.592,19.074,22.105,13.289
	c0.307,2.76,0.611,5.514,0.924,8.271c0.008,0.002-1.307,0.135-1.307,0.135c-26.111,5.613-31.758,14.416-24.746,38.578
	c-1.566,3.924-3.141,7.852-4.713,11.775c-9.676-0.514-19.35-1.031-30.551-1.629c-11.41-38.092-5.887-59.199,24.373-137.764
	c2.279-0.199-4.973,31.791-2.699,31.594c2.477,12.623,4.949,25.246,7.5,38.238C561.309,560.236,565.238,559.164,569.16,558.094z"/>
<path fill-rule="evenodd" clip-rule="evenodd" fill="#841B19" d="M566.137,618.367c-7.012-24.162-1.365-32.965,24.746-38.578
	C582.633,592.648,574.387,605.508,566.137,618.367z"/>
<path fill-rule="evenodd" clip-rule="evenodd" fill="#322618" d="M499.074,162.41c-1.377,2.75-2.752,5.503-4.127,8.252
	c-3.791,0.678-7.584,1.353-11.373,2.038c-0.697-1.021-1.471-1.995-2.322-2.909C487.197,167.33,493.135,164.874,499.074,162.41z"/>
<path fill-rule="evenodd" clip-rule="evenodd" fill="#3C2D1B" d="M470.059,191.749c-1.402-1.409-2.801-2.814-4.197-4.224
	C467.258,188.934,468.656,190.339,470.059,191.749z"/>
<path fill-rule="evenodd" clip-rule="evenodd" fill="#C82927" d="M315.453,413.023c11.934-1.107,17.123,2.865,16.756,16.26
	c-0.561,20.518,5.188,39.314,24,51.373c9.162,15.645,18.313,31.301,27.467,46.953c2.176-8.785,2.633-17.182-0.035-24.424
	c-4.369-11.844-5.715-28.361-25.654-24.311c-1.65-10.873-3.301-21.75-4.947-32.625c4.742,7.326,9.484,14.646,14.227,21.973
	c5.207-3.293,10.09-6.379,14.977-9.473c-0.566-16.484-1.766-32.982-1.453-49.449c0.174-9.479,2.781-18.903,4.297-28.356
	c10.168,3.821,20.334,7.64,30.502,11.453c1.453,1.295,2.908,2.59,4.363,3.891l-0.117-0.114c1.52,5.818,3.809,11.556,4.418,17.47
	c1.674,16.254,2.641,32.586,3.891,48.891c-1.365,2.938-2.73,5.871-4.094,8.801l-0.004,0.012
	c-8.361,16.674-18.156,32.816-24.615,50.201c-4.9,13.189-3.809,28.561-8.467,41.885c-9.404,26.924-19.557,53.518-7.891,81.924
	c3.338,8.121,10.52,14.664,15.939,21.928c0.986,13.822-8.826,22.15-24.193,20.527c-9.039-24.602-18.078-49.209-27.119-73.811
	c6.555-1.563,13.111-3.127,20.088-4.787c1.857-21.279-36.273-26.652-23.955-56.359c10.467,4.615,19.324,8.52,28.176,12.424
	c1.234-1.18,2.465-2.361,3.695-3.545c-6.457-9.152-12.68-18.492-19.436-27.42c-7.447-9.836-19.016-18.166-22.428-29.133
	c-9.338-29.961-22.289-59.648-18.168-92.395L315.453,413.023z"/>
<path fill-rule="evenodd" clip-rule="evenodd" fill="#E33B28" d="M399.012,667.285c-5.42-7.264-12.602-13.807-15.939-21.928
	c-11.666-28.406-1.514-55,7.891-81.924c4.658-13.324,3.566-28.695,8.467-41.885c6.459-17.385,16.254-33.527,24.615-50.201
	c-4.139,30.803-8.279,61.607-12.418,92.412c-2.986,6.826-5.969,13.641-8.949,20.459c-4.268,6.813-12.428,13.832-12.08,20.395
	C391.703,625.596,395.967,646.408,399.012,667.285z"/>
<path fill-rule="evenodd" clip-rule="evenodd" fill="#EE802B" d="M436.703,404.551c-9.232-24.323-30.775-30.846-53.773-35.262
	c-0.16-1.799-0.328-3.604-0.492-5.405c12.484-3.661,24.965-7.317,37.449-10.996c-3.283,3.003-6.572,6.022-9.869,9.049
	c50.76,50.505,54.479,55.964,54.178,88.14c-0.854-2.633-1.707-5.262-2.559-7.895c-4.189-7.027-8.377-14.057-12.566-21.082
	l0.139,0.193c-1.445-1.457-2.891-2.916-4.338-4.373l0.18,0.211c-1.438-2.857-2.877-5.709-4.314-8.561l0.148,0.191
	c-1.443-1.455-2.893-2.908-4.34-4.363L436.703,404.551z"/>
<path fill-rule="evenodd" clip-rule="evenodd" fill="#841B19" d="M473.41,558.555c-2.555,1.576-5.109,3.148-7.658,4.725
	c3.334-28.814,6.678-57.633,9.576-82.674C487.619,503.23,478.488,530.945,473.41,558.555z"/>
<path fill-rule="evenodd" clip-rule="evenodd" fill="#841B19" d="M449.07,421.1c4.189,7.025,8.377,14.055,12.566,21.082
	C457.447,435.154,453.26,428.125,449.07,421.1z"/>
<path fill-rule="evenodd" clip-rule="evenodd" fill="#E33B28" d="M424.049,471.336c1.363-2.93,2.729-5.863,4.094-8.801
	C426.777,465.465,425.412,468.4,424.049,471.336z"/>
<path fill-rule="evenodd" clip-rule="evenodd" fill="#841B19" d="M465.912,563.023c-1.568,1.506-3.141,3.018-4.711,4.531
	C462.771,566.041,464.342,564.535,465.912,563.023z"/>
<path fill-rule="evenodd" clip-rule="evenodd" fill="#841B19" d="M440.736,408.57c1.438,2.852,2.877,5.703,4.314,8.561
	C443.613,414.273,442.174,411.422,440.736,408.57z"/>
<path fill-rule="evenodd" clip-rule="evenodd" fill="#841B19" d="M444.871,416.92c1.447,1.457,2.893,2.916,4.338,4.373
	C447.764,419.836,446.318,418.377,444.871,416.92z"/>
<path fill-rule="evenodd" clip-rule="evenodd" fill="#841B19" d="M436.545,404.398c1.447,1.455,2.896,2.908,4.34,4.363
	C439.441,407.313,437.992,405.854,436.545,404.398z"/>
<path fill-rule="evenodd" clip-rule="evenodd" fill="#E33B28" d="M194.412,316.628c-2.792-0.199-5.587-0.398-8.384-0.603
	C188.82,316.225,191.615,316.427,194.412,316.628z"/>
<path fill-rule="evenodd" clip-rule="evenodd" fill="#CD5828" d="M336.898,258.016c-1.523,15.56-3.047,31.114-4.57,46.669
	l0.127-0.151c-4.063,0.114-8.119,0.224-12.182,0.339c-2.82-7.403-5.643-14.806-8.461-22.213
	C320.178,274.448,328.539,266.23,336.898,258.016z"/>
<path fill-rule="evenodd" clip-rule="evenodd" fill="#841B19" d="M320.273,304.873c4.063-0.115,8.119-0.225,12.182-0.339
	c-4.205,4.042-8.408,8.08-12.611,12.12c-0.012-1.891-0.02-3.789-0.027-5.68C319.967,308.937,320.123,306.905,320.273,304.873z"/>
<path fill-rule="evenodd" clip-rule="evenodd" fill="#841B19" d="M177.008,551.832c-2.411-3.002-4.819-6.006-7.233-9.004
	c-0.002,0.01-1.464-0.451-1.464-0.449c0.567-1.375,1.131-2.756,1.696-4.135c7.25-20.518,14.498-41.039,21.736-61.564
	c3.913-8.887,7.834-17.764,11.757-26.641c-2.262-0.814-4.523-1.629-6.782-2.443c-2.481,8.967-4.964,17.934-7.445,26.895
	c-4.027,5.383-8.053,10.766-13.351,17.842c-5.826-5.248-10.551-9.504-13.385-12.061c5.658-14.434,10.493-26.746,15.328-39.059
	c5.096-1.691,8.829-2.385,11.139-3.871c7.804-5.031,15.151-10.764,22.686-16.215c18.101-7.008,36.203-14.014,54.307-21.018
	c4.058,4.033,8.114,8.063,12.175,12.092c2.336,22.793,4.665,45.58,6.999,68.369c0.782,6.521,1.566,13.039,2.349,19.559
	c-2.429,0.338-6.658,1.596-7.021,0.885c-6.432-12.635-12.389-25.512-18.454-38.332c-4.14-7.012-8.279-14.027-12.416-21.039
	c-2.006,0.313-4.011,0.623-6.011,0.934c-1.738,7.93-3.475,15.852-5.216,23.775c-11.617,18.086-7.178,31.309,13.393,39.871
	c0.143,0.955,0.469,1.84,0.977,2.658c1.243,1.711,2.486,3.426,3.729,5.141c0.143,1.051,0.443,2.053,0.899,3.012
	c4.197,11.373,8.396,22.744,12.594,34.119c-1.303,0.668-2.608,1.332-3.911,1.994c-11.971-10.004-23.934-20.006-38.584-32.258
	c2.032,11.018,3.377,18.303,4.723,25.586c-19.304,1.826-14.347,12.887-7.99,22.945c11.754,18.594,14.882,38.104,10.919,57.477
	c-8.145-13.855-16.566-28.182-24.987-42.51c-7.153-20.439-9.606-43.375-25.67-59.096c-1.96,0.736-3.915,1.479-5.873,2.217
	C178.08,535.615,177.544,543.723,177.008,551.832z M212.639,476.549c2.989,12.855,5.98,25.707,8.969,38.563
	c2.03-0.479,4.063-0.959,6.093-1.439c0-21.703,0-43.404,0-65.107c0.969-6.094,1.936-12.186,3.001-18.902
	C212.736,434.727,209.969,442.564,212.639,476.549z"/>
<path fill-rule="evenodd" clip-rule="evenodd" fill="#E33B28" d="M170.007,538.244c-0.565,1.379-1.129,2.76-1.696,4.135
	c-39.716-6.217-75.742-21.338-105.332-48.553c-9.889-9.096-15.067-23.318-22.395-35.199c4.67,2.666,10.077,4.539,13.891,8.113
	c30.313,28.389,65.039,48.516,105.38,59.189C164.032,527.033,166.66,534,170.007,538.244z"/>
<path fill-rule="evenodd" clip-rule="evenodd" fill="#3C2D1B" d="M189.004,437.342c-3.378,1.787-7.396,2.627-11.139,3.871
	c-1.507-0.332-3.017-0.66-4.519-0.98c-8.382-3.277-16.772-6.564-25.164-9.854c-5.315-0.76-10.634-1.52-15.951-2.273
	c-5.328-2.453-10.658-4.902-15.985-7.354c-3.036-3.955-6.078-7.912-9.114-11.863c7.089,1.707,14.888,2.07,21.137,5.365
	c18.046,9.518,67.052,10.148,73.166,14.414L189.004,437.342z"/>
<path fill-rule="evenodd" clip-rule="evenodd" fill="#E33B28" d="M44.459,348.06c9.428,31.861,17.48,59.075,25.546,86.334
	C39.698,436.844,34.965,388.554,44.459,348.06z"/>
<path fill-rule="evenodd" clip-rule="evenodd" fill="#841B19" d="M148.183,430.379c8.392,3.289,16.782,6.576,25.164,9.854
	c-14.155,12.734-28.305,25.471-42.45,38.219c-2.381,0.205-4.765,0.398-7.151,0.596c1.238-7.545,0.66-16.096,4.145-22.402
	C133.173,447.07,141.279,439.057,148.183,430.379z"/>
<path fill-rule="evenodd" clip-rule="evenodd" fill="#841B19" d="M116.247,420.752c5.327,2.451,10.657,4.9,15.985,7.354
	c-16.775,15.762-33.546,31.525-50.321,47.287l0.183,0.188c5.205-10.531,9.716-21.49,15.831-31.469
	C103.06,435.732,110.067,428.492,116.247,420.752z"/>
<path fill-rule="evenodd" clip-rule="evenodd" fill="#E33B28" d="M123.746,479.047c2.387-0.197,4.771-0.391,7.151-0.596
	c7.445,0.756,14.897,1.512,25.927,2.635c-4.628,5.961-9.722,13.594-10.387,13.223C138.489,489.908,131.206,484.322,123.746,479.047z
	"/>
<path fill-rule="evenodd" clip-rule="evenodd" fill="#E33B28" d="M40.447,458.551c-1.439-2.803-2.879-5.607-4.318-8.412
	C37.568,452.941,39.007,455.748,40.447,458.551z"/>
<path fill-rule="evenodd" clip-rule="evenodd" fill="#841B19" d="M81.911,475.393c-0.294,0.514-0.59,1.031-0.884,1.545
	c0.354-0.453,0.71-0.904,1.066-1.357L81.911,475.393z"/>
<path fill-rule="evenodd" clip-rule="evenodd" fill="#C82927" d="M211.69,421.127c1.913-3.939,3.828-7.885,6.217-12.793
	c-13.649-1.232-3.19-2.326-16.472-3.531l-15.407,1.607c-2.825-1.488-7.116-4.59-9.938-6.082c0,0-6.406,0.229-6.403,0.229
	c0,0-7.572,2.514-9.044,1.031l4.852-5.177l5.512-7.076c-1.43-2.859-12.832-9.396-14.262-12.247
	c7.306-1.02,14.605-2.045,21.909-3.071c-0.048-0.979-0.093-1.96-0.14-2.939c5.46-1.105,10.917-2.214,16.382-3.327
	c22.34,4.75,44.672,9.499,67.007,14.267c1.364,6.043,2.729,12.063,4.097,18.087C247.893,407.113,229.791,414.119,211.69,421.127z"/>
<path fill-rule="evenodd" clip-rule="evenodd" fill="#3C2D1B" d="M165.264,396.112c1.473,1.484,2.947,2.964,4.422,4.445
	C168.211,399.076,166.737,397.596,165.264,396.112z"/>
<path fill-rule="evenodd" clip-rule="evenodd" fill="#EE8776" d="M261.904,382.001c-22.337-4.753-44.669-9.502-67.009-14.252
	c17.455,1.006,34.91,2.012,52.376,3.016c10.279,6.025,10.779-1.263,11.415-8.368c0,0,0.466-0.021,0.473-0.025
	c3.198,0.44,6.392,0.879,9.588,1.325c-1.351,3.604,10.725,9.306,10.725,9.306C278.171,379.165,265.987,375.319,261.904,382.001z"/>
<path fill-rule="evenodd" clip-rule="evenodd" fill="#C82927" d="M210.159,584.387c8.423,14.328,16.845,28.654,24.989,42.51
	c3.963-19.373,0.835-38.883-10.919-57.477c-6.356-10.059-11.313-21.119,7.99-22.945c-0.005,0-0.217-0.213-0.217-0.213
	c1.467,1.463,2.929,2.928,4.396,4.391l-0.14-0.166c5.953,16.785,11.908,33.57,18.406,51.891c2.576-5.596,4.162-9.057,6.501-14.141
	c13.104,7.229,25.398,14.006,37.69,20.787c-7.688,0.385-18.706-2.334-22.477,1.705c-15.792,16.926-29.411,35.877-43.825,54.082
	c-0.493,2.1-0.989,4.203-1.477,6.305c0,0.631-6.663,2.785-9.991,2.961c-4.416-0.199-3.857,0.199-8.274,0
	c-3.825,0.795-8.384-2.93-10.087-2.877c-3.047-6.844-6.093-13.691-9.129-20.533c-2.458-4.191-4.922-8.387-7.388-12.584l0.125,0.154
	c-1.44-1.434-2.877-2.877-4.319-4.309l0.124,0.156c-1.425-2.838-2.852-5.682-4.278-8.52l0.106,0.186
	c-1.271-10.438,2.676-24.232-15.373-23.865c-1.063-0.086-1.688-0.656-1.878-1.715c0.416-1.17,0.742-2.363,0.977-3.582
	c2.792-1.217,5.577-2.436,8.364-3.66c5.372,7.148,11.111,14.057,16.022,21.512c5.707,8.658,10.684,17.803,15.979,26.732
	c1.928-0.836,3.851-1.668,5.776-2.5c-1.039-7.18-1.634-14.465-3.238-21.521c-1.564-6.877-4.159-13.518-6.302-20.264
	C202.25,592.719,206.206,588.551,210.159,584.387z"/>
<path fill-rule="evenodd" clip-rule="evenodd" fill="#C82927" d="M186.468,650.178c-8.225-3.148-16.449-6.303-24.693-9.48
	c-3.243-3.783-6.466-7.539-9.689-11.301c3.592-8.84,7.187-17.676,10.778-26.494c5.031,7.627,10.067,15.242,15.104,22.848
	l-0.106-0.186c1.427,2.842,2.854,5.682,4.278,8.52l-0.124-0.156c1.442,1.432,2.879,2.875,4.319,4.309l-0.125-0.154
	C186.296,642.115,186.384,646.145,186.468,650.178z"/>
<path fill-rule="evenodd" clip-rule="evenodd" fill="#841B19" d="M298.857,609.023c-12.292-6.781-24.586-13.559-37.69-20.787
	c-2.339,5.084-3.925,8.545-6.501,14.141c-6.498-18.32-12.453-35.105-18.406-51.885c8.471,6.826,16.939,13.658,25.405,20.488
	c1.153,0.721,2.398,0.973,3.739,0.752l-0.13-0.104c18.108,20.287,42.595,15.992,68.431,19.186
	c-2.221-9.641-3.832-16.652-5.451-23.66c-8.355-15.338-16.719-30.678-25.076-46.012c3.863-2.6,7.724-5.195,11.587-7.793
	c-2.133-11.914-4.025-23.869-6.453-35.725c-2.873-14.059-5.396-28.277-9.64-41.938c-2.5-8.055-8.037-15.164-12.209-22.695
	l0.211-0.551c2.615,0.008,5.236,0.018,7.854,0.02c7.049,0.109,14.093,0.223,21.144,0.326c-4.121,32.746,8.83,62.434,18.168,92.395
	c3.412,10.967,14.98,19.297,22.428,29.133c6.756,8.928,12.979,18.268,19.436,27.42c-1.23,1.184-2.461,2.365-3.695,3.545
	c-8.852-3.904-17.709-7.809-28.176-12.424c-12.318,29.707,25.813,35.08,23.955,56.359c-6.977,1.66-13.533,3.225-20.088,4.787
	c-1.744-0.873-4.186-1.293-5.102-2.703c-2.563-3.949-4.496-8.309-6.678-12.512c-4.162,3.742-8.707,7.145-12.387,11.311
	c-4.369,4.955-7.986,10.564-11.934,15.889C307.35,620.334,303.104,614.676,298.857,609.023z"/>
<path fill-rule="evenodd" clip-rule="evenodd" fill="#EE802B" d="M442.91,312.962c-28.895,23.421-57.738,46.901-86.809,70.11
	c-1.732,1.39-5.209,0.598-7.883,0.821C371.889,349.718,394.668,314.344,442.91,312.962z"/>
<path fill-rule="evenodd" clip-rule="evenodd" fill="#C82927" d="M352.563,433.994c-11.834-16.195-11.664-30.682,6.107-44.645
	c4.188,14.549,7.859,27.317,11.529,40.081C364.316,430.953,358.439,432.473,352.563,433.994z"/>
<path fill-rule="evenodd" clip-rule="evenodd" fill="#E33B28" d="M352.563,433.994c5.877-1.521,11.754-3.041,17.637-4.564
	c4.016,9.777,8.031,19.551,12.047,29.32c-4.891,3.094-9.773,6.18-14.98,9.473c-4.742-7.326-9.484-14.646-14.227-21.973
	C352.881,442.166,352.723,438.078,352.563,433.994z"/>
<path fill-rule="evenodd" clip-rule="evenodd" fill="#CD5828" d="M419.951,396.289c-1.455-1.301-2.91-2.596-4.363-3.891
	C417.041,393.698,418.496,394.994,419.951,396.289z"/>
<path fill-rule="evenodd" clip-rule="evenodd" fill="#C82927" d="M557.705,117.016c0,0,17.912-5.45,20.482-4.15l-12.432,7.866
	c-1.422,1.447-2.846,2.89-4.268,4.334l0.143-0.142c-1.449,1.414-2.898,2.827-4.352,4.241l0.082-0.122
	c-4.197,2.814-8.391,5.627-12.588,8.441l0.064-0.401c-9.77,5.697-19.537,11.389-29.309,17.08l0.191-0.078
	c-2.814,1.43-5.629,2.857-8.449,4.282l0.148-0.085c-2.828,1.43-5.654,2.862-8.479,4.294l0.131-0.167
	c-5.938,2.464-17.156,31.051-23.1,33.511c-6.889-0.572-20.775-9.512-20.775-9.512c-2.629-3.828-10.441-15.139-10.441-15.139
	s0.27-4.334,0.279-4.479c8.945-6.586,17.518-13.77,26.92-19.607c11.654-7.238,24-13.365,36.041-19.979
	C524.566,123.808,541.135,120.414,557.705,117.016z"/>
<path fill-rule="evenodd" clip-rule="evenodd" fill="#C82927" d="M571.756,88.1c0,0-4.807,2.359-11.818,5.911
	c-17.246,8.735-47.818,24.688-52.895,30.497c-5.084,1.173-10.135,3.016-15.238,3.153c-1.646,0.045-3.41-4.392-5.121-6.782
	l-0.191,0.161c1.461-1.464,2.928-2.937,4.391-4.403l-0.211,0.267c1.34-2.69,2.684-5.383,4.025-8.072
	C505.947,105.879,560.494,91.049,571.756,88.1z"/>
<path fill-rule="evenodd" clip-rule="evenodd" fill="#841B19" d="M494.697,108.832c-1.342,2.689-2.686,5.382-4.025,8.072
	c-0.051-2.665-0.104-5.333-0.152-7.998C491.914,108.881,493.305,108.856,494.697,108.832z"/>
<path fill-rule="evenodd" clip-rule="evenodd" fill="#841B19" d="M490.883,116.637c-1.463,1.467-2.93,2.939-4.391,4.403
	C487.953,119.577,489.42,118.104,490.883,116.637z"/>
<path fill-rule="evenodd" clip-rule="evenodd" fill="#322618" d="M498.941,162.577c2.824-1.432,5.65-2.864,8.479-4.294
	C504.592,159.712,501.766,161.145,498.941,162.577z"/>
<path fill-rule="evenodd" clip-rule="evenodd" fill="#322618" d="M507.271,158.368c2.82-1.425,5.635-2.853,8.449-4.282
	C512.906,155.515,510.092,156.943,507.271,158.368z"/>
<path fill-rule="evenodd" clip-rule="evenodd" fill="#841B19" d="M357.986,478.875c19.939-4.051,21.285,12.467,25.654,24.311
	c2.668,7.242,2.211,15.639,0.035,24.424c-9.154-15.652-18.305-31.309-27.467-46.953C356.82,480.098,357.414,479.5,357.986,478.875z"
	/>
<path fill-rule="evenodd" clip-rule="evenodd" fill="#322618" d="M544.773,137.485c4.197-2.814,8.391-5.627,12.588-8.441
	C553.164,131.858,548.971,134.67,544.773,137.485z"/>
<path fill-rule="evenodd" clip-rule="evenodd" fill="#322618" d="M561.488,125.066c1.422-1.444,2.846-2.887,4.268-4.334
	C564.334,122.174,562.91,123.622,561.488,125.066z"/>
<path fill-rule="evenodd" clip-rule="evenodd" fill="#322618" d="M557.279,129.166c1.453-1.414,2.902-2.827,4.352-4.241
	C560.182,126.338,558.732,127.751,557.279,129.166z"/>
<path fill-rule="evenodd" clip-rule="evenodd" fill="#841B19" d="M198.294,596.887c2.143,6.746,4.737,13.387,6.302,20.264
	c1.604,7.057,2.199,14.342,3.238,21.521c-1.926,0.832-3.849,1.664-5.776,2.5c-5.295-8.93-10.271-18.074-15.979-26.732
	c-4.911-7.455-10.65-14.363-16.022-21.512c2.617-11.768,5.232-23.535,7.851-35.295C184.703,570.732,191.5,583.809,198.294,596.887z"
	/>
<path fill-rule="evenodd" clip-rule="evenodd" fill="#EE8776" d="M198.294,596.887c-6.795-13.078-13.592-26.154-20.387-39.254
	c-0.304-1.949-0.605-3.891-0.901-5.813c0.538-8.098,1.073-16.205,1.611-24.313c1.958-0.738,3.913-1.48,5.873-2.217
	c16.063,15.721,18.517,38.656,25.67,59.096C206.206,588.551,202.25,592.719,198.294,596.887z"/>
<path fill-rule="evenodd" clip-rule="evenodd" fill="#C82927" d="M261.665,570.98c-8.466-6.83-16.935-13.662-25.405-20.488
	c0-0.006,0.14,0.16,0.14,0.16c-1.468-1.463-2.93-2.928-4.396-4.391c0,0,0.212,0.213,0.217,0.213
	c-1.346-7.283-2.69-14.568-4.723-25.586c14.65,12.252,26.613,22.254,38.584,32.258c1.303-0.662,2.608-1.326,3.911-1.994
	c-4.197-11.375-8.396-22.746-12.594-34.117c1.679-3.922,4.673-7.805,4.808-11.781c0.473-14.172-0.027-28.379-0.162-42.572
	c6.065,12.82,12.022,25.697,18.454,38.332c0.363,0.711,4.593-0.547,7.012-0.885c5.268,5.41,10.543,10.824,15.818,16.234
	c-0.039,1.646-0.077,3.293-0.117,4.939l-0.032-0.164c8.357,15.338,16.72,30.678,25.076,46.016
	c-11.252,13.615-25.023,15.273-40.984,9.477c-7.012-2.547-14.644-3.391-21.996-5.002l0.13,0.104
	C264.158,571.482,262.911,571.229,261.665,570.98z"/>
<path fill-rule="evenodd" clip-rule="evenodd" fill="#C82927" d="M278.171,412.201c2.762,0.266,5.524,0.529,8.292,0.791
	c4.172,7.531,9.709,14.641,12.209,22.695c4.244,13.66,6.768,27.879,9.64,41.938c2.428,11.855,4.32,23.811,6.461,35.725
	c-6.357-9.33-12.352-18.939-19.292-27.816c-2.104-2.693-6.802-3.365-10.312-4.963C282.836,457.781,280.507,434.994,278.171,412.201z
	"/>
<path fill-rule="evenodd" clip-rule="evenodd" fill="#E33B28" d="M262.043,462.682c0.135,14.193,0.635,28.4,0.162,42.572
	c-0.135,3.977-3.129,7.859-4.808,11.781c-0.456-0.961-0.757-1.963-0.894-3.02c-1.243-1.717-2.491-3.428-3.734-5.135
	c-0.508-0.818-0.834-1.703-0.974-2.664c-4.461-13.299-8.93-26.58-13.396-39.865c1.741-7.924,3.478-15.846,5.216-23.775
	c2-0.311,4.005-0.621,6.011-0.934C253.764,448.654,257.904,455.67,262.043,462.682z"/>
<path fill-rule="evenodd" clip-rule="evenodd" fill="#C82927" d="M227.701,448.564c0,21.703,0,43.404,0,65.107
	c-2.03,0.48-4.063,0.961-6.093,1.439c-2.988-12.855-5.979-25.707-8.969-38.551C217.661,467.24,222.682,457.902,227.701,448.564z"/>
<path fill-rule="evenodd" clip-rule="evenodd" fill="#EE8776" d="M227.701,448.564c-5.019,9.338-10.04,18.676-15.062,27.996
	c-2.67-33.996,0.097-41.834,18.063-46.898C229.636,436.379,228.669,442.471,227.701,448.564z"/>
<path fill-rule="evenodd" clip-rule="evenodd" fill="#E33B28" d="M285.17,480.57c3.51,1.598,8.207,2.27,10.312,4.963
	c6.939,8.877,12.934,18.486,19.292,27.816c-3.871,2.598-7.732,5.193-11.595,7.793c0-0.004,0.032,0.16,0.032,0.16
	c0.04-1.646,0.078-3.293,0.117-4.939c-5.275-5.41-10.551-10.824-15.818-16.234C286.737,493.609,285.953,487.092,285.17,480.57z"/>
<path fill-rule="evenodd" clip-rule="evenodd" fill="#C82927" d="M238.401,466.352c4.466,13.285,8.935,26.566,13.396,39.865
	C231.223,497.66,226.784,484.438,238.401,466.352z"/>
<path fill-rule="evenodd" clip-rule="evenodd" fill="#C82927" d="M189.273,474.49c2.481-8.961,4.964-17.928,7.445-26.895
	c2.259,0.814,4.521,1.629,6.782,2.443c-3.923,8.877-7.844,17.754-11.757,26.641C190.939,475.943,190.11,475.213,189.273,474.49z"/>
<path fill-rule="evenodd" clip-rule="evenodd" fill="#C82927" d="M252.77,508.881c1.243,1.707,2.491,3.418,3.734,5.135
	C255.256,512.307,254.013,510.592,252.77,508.881z"/>
<path fill-rule="evenodd" clip-rule="evenodd" fill="#841B19" d="M177.967,625.75c-5.036-7.605-10.072-15.221-15.104-22.848
	c0-0.02-0.289-1.07-0.279-1.045C180.643,601.518,176.697,615.313,177.967,625.75z"/>
<path fill-rule="evenodd" clip-rule="evenodd" fill="#E33B28" d="M311.6,625.986c-17.592,30.771-46,39.518-79.044,38.824
	c14.414-18.205,28.033-37.156,43.825-54.082c3.771-4.039,14.788-1.32,22.477-1.705C303.104,614.676,307.35,620.334,311.6,625.986z"
	/>
<path fill-rule="evenodd" clip-rule="evenodd" fill="#987044" d="M207.832,671.041c4.419,0.199,8.84,0.4,13.256,0.6"/>
<path fill-rule="evenodd" clip-rule="evenodd" fill="#841B19" d="M186.468,650.178c-0.084-4.033-0.172-8.063-0.259-12.096
	c2.466,4.197,4.93,8.393,7.388,12.584C191.216,650.498,188.842,650.338,186.468,650.178z"/>
<path fill-rule="evenodd" clip-rule="evenodd" fill="#841B19" d="M182.139,634.084c-1.425-2.838-2.852-5.678-4.278-8.52
	C179.288,628.402,180.714,631.246,182.139,634.084z"/>
<path fill-rule="evenodd" clip-rule="evenodd" fill="#841B19" d="M232.002,546.262c1.467,1.463,2.929,2.928,4.396,4.391
	C234.931,549.189,233.469,547.725,232.002,546.262z"/>
<path fill-rule="evenodd" clip-rule="evenodd" fill="#841B19" d="M186.334,638.236c-1.44-1.434-2.877-2.877-4.319-4.309
	C183.458,635.359,184.894,636.803,186.334,638.236z"/>
<path fill-rule="evenodd" clip-rule="evenodd" fill="#E33B28" d="M265.274,571.629c7.353,1.611,14.984,2.455,21.996,5.002
	c15.961,5.797,29.732,4.139,40.984-9.477c1.619,7.008,3.23,14.02,5.451,23.66C307.869,587.621,283.382,591.916,265.274,571.629z"/>
<path fill-rule="evenodd" clip-rule="evenodd" fill="#E33B28" d="M261.665,570.98c1.246,0.248,2.493,0.502,3.739,0.752
	C264.063,571.953,262.818,571.701,261.665,570.98z"/>
<path fill-rule="evenodd" clip-rule="evenodd" fill="#841B19" d="M303.328,516.363c-0.039,1.646-0.077,3.293-0.117,4.939
	C303.25,519.656,303.289,518.01,303.328,516.363z"/>
<path fill-rule="evenodd" clip-rule="evenodd" fill="#841B19" d="M438.242,591.551l30.76-7.332
	c5.402,9.799,9.684,48.279,9.684,48.279C473.68,632.469,443.242,591.57,438.242,591.551z"/>
<path fill-rule="evenodd" clip-rule="evenodd" fill="#BACBCA" d="M478.969,679.295"/>
<path fill-rule="evenodd" clip-rule="evenodd" fill="#BACBCA" d="M478.969,679.295l-8.639,13.535c0,0,18.535-6.576,16.568-13.752
	L478.969,679.295z"/>
<path fill-rule="evenodd" clip-rule="evenodd" fill="#BACBCA" d="M374.818,687.813c0,0,24.385,23.834,31.244,13.057
	c0,0-3.385,1.09-8.883-11.178l-5.578-5.736C387.191,686.635,384.545,688.012,374.818,687.813z"/>
<path fill-rule="evenodd" clip-rule="evenodd" fill="#444456" d="M298.767,211.526c0,0-1.531,27.055,12.922,26.439
	c14.453-0.615,20.455-4.302,20.455-4.302l4.201-4.189l1.885-23.991C340.908,200.312,319.625,170.256,298.767,211.526z"/>
<path fill-rule="evenodd" clip-rule="evenodd" fill="#FFFFFF" d="M318.592,208.906c0,2.826-2.125,5.12-4.742,5.12
	c-2.615,0-4.74-2.294-4.74-5.12c0-2.832,2.125-5.127,4.74-5.127C316.467,203.779,318.592,206.074,318.592,208.906z"/>
<path fill-rule="evenodd" clip-rule="evenodd" fill="#C82927" d="M238.401,370.254c0,0,34.585-30.168,76.373-44.301
	c0,0-30.61,49.487-35.302,47.049c-4.692-2.441-14.152-7.567-10.725-9.306l-10.061-1.3c0,0-0.244,11.131-4.05,10.605
	C250.833,372.477,238.401,370.254,238.401,370.254z"/>
<path fill-rule="evenodd" clip-rule="evenodd" fill="#841B19" d="M278.171,342.702l5.733-3.168
	c-1.19,1.942-1.992,9.184,0.392,15.645c2.662,7.243-1.532,8.464-3.709,17.249c-9.148-15.652,0.145-10.186-9.024-25.83
	C272.176,346.04,277.601,343.328,278.171,342.702z"/>
<path fill-rule="evenodd" clip-rule="evenodd" fill="#E33B28" d="M254.915,357.602l6.04-4.222c1.898,1.504,0.596,9.388,0.596,9.388
	l-2.864-0.371c0,0-0.27,6.535-1.233,7.883c-5.277-5.41-4.189-2.27-9.457-7.679L254.915,357.602z"/>
<polygon fill-rule="evenodd" clip-rule="evenodd" fill="#BACBCA" points="199.615,314.967 214.798,310.591 210.161,323.372 "/>
<polygon fill-rule="evenodd" clip-rule="evenodd" fill="#BACBCA" points="227.791,306.852 239.753,314.967 243.156,302.426 "/>
<polygon fill-rule="evenodd" clip-rule="evenodd" fill="#BACBCA" points="250.661,300.269 261.897,308.698 263.782,296.491 "/>
<polygon fill-rule="evenodd" clip-rule="evenodd" fill="#BACBCA" points="274.522,293.395 285.156,303.377 288.425,289.394 "/>
<path fill-rule="evenodd" clip-rule="evenodd" fill="#BACBCA" d="M275.601,376.49c0,0,10.543-4.743,9.555-7.595l-10.529-6.523
	L275.601,376.49z"/>
<polygon fill-rule="evenodd" clip-rule="evenodd" fill="#BACBCA" points="289.13,363.96 295.001,355.98 285.156,354.486 "/>
<polygon fill-rule="evenodd" clip-rule="evenodd" fill="#BACBCA" points="297.878,351.858 302.359,345.233 295.001,344.231 "/>
<path fill-rule="evenodd" clip-rule="evenodd" fill="#BACBCA" d="M203.488,671.342c0,0,1.462,11.607,5.229,8.838
	c3.764-2.771,5.397-5.994,5.397-5.994h-3.216L203.488,671.342z"/>
<path fill-rule="evenodd" clip-rule="evenodd" fill="#BACBCA" d="M181.066,648.107c0,0,6.962-1.014,12.531,2.559
	c5.569,3.574,4.239,9.541,4.239,9.541s0.842,2.314-0.496,5.768c-1.978,5.104-6.601,12.082-8.466,12.705
	c-3.128,1.043-4.309-17.66-4.309-17.66S179.39,652.668,181.066,648.107z"/>
<path fill-rule="evenodd" clip-rule="evenodd" fill="#841B19" d="M539.338,108.554l-21.746,8.083l17.99-10.192l19.438-10.192
	C555.02,96.252,537.945,108.58,539.338,108.554z"/>
<path fill-rule="evenodd" clip-rule="evenodd" fill="#BACBCA" d="M152.776,629.396c0,0,4.12,7.729,9.689,11.301
	c2.087,1.338,14.774,3.162,15.23,5.854c0.765,4.49-6.429,5.709-6.429,5.709s-11.104,21.773-14.232,22.818
	c-3.128,1.043-10.107-16.16-9.587-27.105C147.971,637.031,151.102,633.955,152.776,629.396z"/>
<path fill-rule="evenodd" clip-rule="evenodd" fill="#BACBCA" d="M394.416,682.037c0,0,3.658-4.301,4.109-7.863
	c0.537-4.219,8.877,6.705,15.484,7.119c6.609,0.41-3.736,3.148-4.777,3.539C408.189,685.223,402,685.193,394.416,682.037z"/>
<path fill-rule="evenodd" clip-rule="evenodd" fill="#BACBCA" d="M563.592,645.492c0,0,3.197,4.779-6.84,14.703
	c0,0-7.742,5.973-7.043,0.262c0.344-2.783-3.666-22.273-3.666-22.273C552.137,639.508,563.592,645.492,563.592,645.492z"/>
<path fill-rule="evenodd" clip-rule="evenodd" fill="#BACBCA" d="M526.588,640.1c0,0,4.041,12.287,3.699,15.07
	c-0.703,5.711,7.039-0.262,7.039-0.262c10.037-9.924,7.105-17.088,7.105-17.088C543.857,635.988,529.133,636.191,526.588,640.1z"/>
<path fill-rule="evenodd" clip-rule="evenodd" fill="#BACBCA" d="M523.604,642.172c0,0,0.547,5.699-0.672,7.701
	c-1.219,2-1.889,1.695-2.932,0.324c-1.043-1.367-1.613-2.635-1.613-2.635C519.867,644.92,523.604,642.172,523.604,642.172z"/>
</svg>
